<?xml version="1.0" encoding="utf-8"?>
<!-- Generator: Adobe Illustrator 15.1.0, SVG Export Plug-In  -->
<!DOCTYPE svg PUBLIC "-//W3C//DTD SVG 1.1//EN" "http://www.w3.org/Graphics/SVG/1.1/DTD/svg11.dtd" [
	<!ENTITY ns_flows "http://ns.adobe.com/Flows/1.0/">
]>
<svg version="1.1"
	 xmlns="http://www.w3.org/2000/svg" xmlns:xlink="http://www.w3.org/1999/xlink" xmlns:a="http://ns.adobe.com/AdobeSVGViewerExtensions/3.0/"
	 x="0px" y="0px" width="64px" height="64px" viewBox="0 0 64 64" overflow="visible" enable-background="new 0 0 64 64"
	 xml:space="preserve">
<defs>
</defs>
<path fill="#C83C14" d="M0,0h64v64H0V0z"/>
<polygon fill="#FFFFFF" points="50,46 31.4,46 22.5,54 22.5,46 14,46 14,15 50,15 "/>
<path fill="#C83C14" d="M37.7,18c0.9,0,1.8,0.2,2.7,0.6c0.9,0.4,1.6,0.9,2.3,1.6c0.7,0.7,1.2,1.5,1.6,2.3c0.4,0.9,0.6,1.7,0.6,2.7
	c0,0.9-0.1,1.8-0.4,2.6c-0.3,0.8-0.8,1.6-1.4,2.2l-3.3,3.3c-0.1,0.1-0.2,0.2-0.3,0.3c-0.6,0.5-1.3,0.9-2.1,1.2
	c-0.8,0.3-1.6,0.4-2.4,0.3c-1.1,0-2.1-0.3-3-0.8c-0.7-0.4-1.4-0.8-2-1.4c-0.6-0.6-1.1-1.3-1.4-2c0.4-0.4,1-0.6,1.6-0.6
	c0.2,0,0.5,0,0.7,0.1c0.4,0.6,1,1.2,1.6,1.6c0.8,0.5,1.6,0.7,2.4,0.8c0.6,0,1.2-0.1,1.7-0.3c0.6-0.2,1-0.5,1.5-0.9l3.3-3.3
	c0.4-0.4,0.7-0.9,0.9-1.5c0.2-0.6,0.3-1.1,0.3-1.7c0-0.6-0.2-1.2-0.4-1.8c-0.3-0.6-0.6-1.1-1.1-1.6c-0.5-0.5-1-0.8-1.6-1.1
	c-0.6-0.3-1.2-0.4-1.8-0.4c-0.6,0-1.2,0.1-1.7,0.3c-0.6,0.2-1.1,0.5-1.5,1l-2.3,2.3c-0.8-0.2-1.6-0.4-2.4-0.4c-0.1,0-0.3,0-0.6,0
	c0.1-0.1,0.2-0.2,0.3-0.3l3.3-3.3c0.6-0.6,1.4-1.1,2.2-1.4C36,18.1,36.8,18,37.7,18L37.7,18z M30,25.8c1.1,0,2.1,0.3,3,0.8
	c0.7,0.4,1.4,0.8,2,1.4c0.6,0.6,1.1,1.3,1.4,2c-0.4,0.4-1,0.6-1.6,0.6c-0.2,0-0.5-0.1-0.7-0.1c-0.4-0.6-1-1.2-1.6-1.6
	c-0.8-0.5-1.6-0.7-2.4-0.8c-0.6,0-1.2,0.1-1.7,0.3c-0.6,0.2-1,0.5-1.5,1l-3.3,3.3c-0.4,0.4-0.7,0.9-1,1.5c-0.2,0.6-0.3,1.1-0.3,1.7
	c0,0.6,0.2,1.2,0.4,1.8c0.3,0.6,0.6,1.1,1.1,1.6c0.5,0.5,1,0.8,1.6,1.1c0.6,0.3,1.2,0.4,1.8,0.4c0.6,0,1.2-0.1,1.7-0.3
	c0.6-0.2,1.1-0.5,1.5-0.9l2.3-2.3c0.8,0.2,1.6,0.4,2.4,0.4c0.1,0,0.3,0,0.6,0c-0.1,0.1-0.2,0.2-0.3,0.3l-3.3,3.3
	c-0.6,0.6-1.4,1.1-2.2,1.4C29,42.9,28.2,43,27.3,43c-0.9,0-1.8-0.2-2.7-0.6c-0.9-0.4-1.6-0.9-2.3-1.6c-0.7-0.7-1.2-1.5-1.6-2.3
	c-0.4-0.9-0.6-1.7-0.6-2.7c0-0.9,0.1-1.8,0.4-2.6c0.3-0.8,0.8-1.6,1.4-2.2l3.3-3.3c0.1-0.1,0.2-0.2,0.3-0.3c0.6-0.5,1.3-1,2.1-1.2
	C28.3,25.9,29.1,25.7,30,25.8L30,25.8z"/>
</svg>
