<?xml version="1.0" encoding="utf-8"?>
<!-- Generator: Adobe Illustrator 15.1.0, SVG Export Plug-In  -->
<!DOCTYPE svg PUBLIC "-//W3C//DTD SVG 1.1//EN" "http://www.w3.org/Graphics/SVG/1.1/DTD/svg11.dtd" [
	<!ENTITY ns_flows "http://ns.adobe.com/Flows/1.0/">
]>
<svg version="1.1"
	 xmlns="http://www.w3.org/2000/svg" xmlns:xlink="http://www.w3.org/1999/xlink" xmlns:a="http://ns.adobe.com/AdobeSVGViewerExtensions/3.0/"
	 x="0px" y="0px" width="64px" height="64px" viewBox="0 0 64 64" overflow="visible" enable-background="new 0 0 64 64"
	 xml:space="preserve">
<defs>
</defs>
<path fill="#C83C14" d="M0,0h64v64H0V0z"/>
<polygon fill="#FFFFFF" points="52,45.79 31.3,45.79 21.45,54 21.45,45.79 12,45.79 12,14 52,14 "/>
<path fill="#C83C14" d="M45.85,23.49c0.69,0.79,1.21,1.7,1.59,2.72C47.81,27.25,48,28.34,48,29.5c0.01,1.16-0.18,2.25-0.56,3.29
	c-0.38,1.03-0.91,1.94-1.59,2.72c-0.68,0.78-1.47,1.4-2.36,1.83c-0.9,0.44-1.84,0.66-2.84,0.66h-5.19c-0.1,0-0.25,0-0.43-0.01
	c-0.91-0.07-1.78-0.31-2.6-0.74c-0.82-0.43-1.54-1-2.17-1.73c-0.79-0.91-1.36-1.97-1.73-3.18c-0.28-0.9-0.42-1.84-0.42-2.83
	c0-0.99,0.14-1.94,0.42-2.83c0.68,0,1.26,0.28,1.73,0.83c0.17,0.2,0.32,0.42,0.44,0.68c-0.18,0.89-0.18,1.77,0,2.66
	c0.21,1.03,0.65,1.93,1.3,2.68c0.45,0.52,0.97,0.92,1.57,1.22c0.59,0.29,1.22,0.44,1.89,0.44l5.19,0.01c0.66-0.01,1.3-0.15,1.9-0.44
	c0.59-0.29,1.11-0.7,1.57-1.22c0.45-0.52,0.8-1.12,1.06-1.81c0.25-0.69,0.38-1.42,0.38-2.19c0-0.77-0.13-1.5-0.38-2.19
	c-0.26-0.69-0.61-1.3-1.06-1.82c-0.45-0.52-0.97-0.93-1.57-1.22c-0.6-0.29-1.23-0.44-1.9-0.44l-3.63,0
	c-0.42-0.85-0.94-1.64-1.56-2.35c-0.1-0.11-0.24-0.27-0.44-0.47c0.19-0.01,0.34-0.02,0.44-0.02l5.19,0c0.99,0,1.93,0.22,2.83,0.66
	C44.38,22.1,45.17,22.71,45.85,23.49L45.85,23.49z M33.73,23.49c0.79,0.91,1.37,1.98,1.74,3.18c0.28,0.9,0.42,1.84,0.42,2.83
	c0,1-0.13,1.94-0.42,2.83c-0.68,0-1.25-0.28-1.74-0.83c-0.17-0.2-0.31-0.42-0.43-0.68c0.17-0.89,0.18-1.77,0-2.66
	c-0.22-1.03-0.65-1.93-1.3-2.68c-0.45-0.52-0.97-0.92-1.57-1.22c-0.6-0.29-1.23-0.43-1.89-0.43l-5.19,0c-0.67,0-1.3,0.15-1.9,0.44
	c-0.59,0.3-1.12,0.7-1.57,1.22c-0.45,0.52-0.8,1.13-1.06,1.82c-0.25,0.69-0.38,1.42-0.38,2.19c0,0.77,0.13,1.5,0.38,2.19
	c0.25,0.69,0.6,1.29,1.05,1.81c0.45,0.52,0.98,0.93,1.57,1.22c0.6,0.29,1.23,0.44,1.89,0.44l3.64,0c0.42,0.85,0.93,1.63,1.55,2.35
	c0.1,0.11,0.24,0.27,0.44,0.47C28.78,38,28.64,38,28.54,38h-5.19c-1,0-1.95-0.22-2.84-0.65c-0.89-0.44-1.68-1.05-2.36-1.84
	c-0.68-0.78-1.2-1.69-1.59-2.73C16.19,31.74,16,30.65,16,29.5c0-1.16,0.19-2.25,0.56-3.28c0.38-1.03,0.9-1.94,1.59-2.73
	c0.68-0.79,1.47-1.4,2.35-1.83C21.4,21.22,22.34,21,23.34,21l5.19,0c0.1,0,0.25,0,0.43,0.02c0.91,0.06,1.78,0.31,2.59,0.74
	C32.38,22.19,33.1,22.77,33.73,23.49L33.73,23.49z"/>
</svg>
